<svg width="227" height="75" viewBox="0 0 227 75" fill="none" xmlns="http://www.w3.org/2000/svg">
<path d="M26.4787 1.25771C26.8054 0.919372 27.3464 0.911738 27.687 1.24066V1.24066C28.0276 1.56958 28.0388 2.11049 27.7121 2.44883L1.98418 29.0909C1.65745 29.4292 1.11647 29.4369 0.775863 29.1079V29.1079C0.435257 28.779 0.424007 28.2381 0.750734 27.8998L26.4787 1.25771Z" fill="black"/>
<path d="M50.4577 50.2163C50.9159 50.0968 51.3841 50.3714 51.5036 50.8296V50.8296C51.623 51.2878 51.3484 51.7561 50.8902 51.8755L16.2622 60.9024C15.804 61.0219 15.3357 60.7473 15.2163 60.2891V60.2891C15.0968 59.8309 15.3714 59.3626 15.8296 59.2432L50.4577 50.2163Z" fill="black"/>
<path d="M0.523011 29.0806C0.323322 28.6512 0.509483 28.1413 0.938814 27.9416V27.9416C1.36814 27.7419 1.87807 27.9281 2.07775 28.3574L16.5369 59.4446C16.7366 59.874 16.5504 60.3839 16.1211 60.5836V60.5836C15.6918 60.7833 15.1819 60.5971 14.9822 60.1678L0.523011 29.0806Z" fill="black"/>
<path d="M57.8416 14.5941C57.9409 14.1311 58.3967 13.8363 58.8596 13.9356V13.9356C59.3226 14.0349 59.6174 14.4907 59.5181 14.9537L51.8563 50.6763C51.7571 51.1393 51.3012 51.4341 50.8383 51.3348V51.3348C50.3753 51.2355 50.0805 50.7797 50.1798 50.3167L57.8416 14.5941Z" fill="black"/>
<path d="M27.3531 2.7325C26.9141 2.55512 26.702 2.05544 26.8794 1.61642V1.61642C27.0567 1.1774 27.5564 0.965292 27.9954 1.14267L58.8353 13.6028C59.2743 13.7801 59.4864 14.2798 59.309 14.7188V14.7188C59.1316 15.1579 58.6319 15.37 58.1929 15.1926L27.3531 2.7325Z" fill="black"/>
<path d="M15.3616 43.5005C15.1619 43.0712 15.348 42.5612 15.7774 42.3616V42.3616C16.2067 42.1619 16.7166 42.348 16.9163 42.7774L30.9537 72.9579C31.1534 73.3872 30.9673 73.8971 30.5379 74.0968V74.0968C30.1086 74.2965 29.5987 74.1103 29.399 73.681L15.3616 43.5005Z" fill="black"/>
<path d="M64.9079 63.3596C65.3661 63.2401 65.8344 63.5148 65.9538 63.9729V63.9729C66.0732 64.4311 65.7986 64.8994 65.3405 65.0188L30.7124 74.0457C30.2542 74.1652 29.7859 73.8906 29.6665 73.4324V73.4324C29.5471 72.9742 29.8217 72.5059 30.2799 72.3865L64.9079 63.3596Z" fill="black"/>
<path d="M41.6955 15.4102C42.0244 15.0696 42.5672 15.0601 42.9078 15.389V15.389C43.2484 15.718 43.2579 16.2607 42.929 16.6013L16.829 43.6286C16.5001 43.9692 15.9573 43.9787 15.6167 43.6498V43.6498C15.2761 43.3209 15.2666 42.7781 15.5956 42.4375L41.6955 15.4102Z" fill="black"/>
<path d="M72.2338 28.2148C72.3331 27.7518 72.7889 27.457 73.2519 27.5563V27.5563C73.7149 27.6556 74.0097 28.1114 73.9104 28.5744L66.301 64.0528C66.2017 64.5158 65.7459 64.8106 65.2829 64.7113V64.7113C64.8199 64.612 64.5251 64.1562 64.6244 63.6932L72.2338 28.2148Z" fill="black"/>
<path d="M42.6149 16.8382C42.1758 16.6609 41.9637 16.1612 42.1411 15.7222V15.7222C42.3185 15.2831 42.8182 15.071 43.2572 15.2484L73.076 27.296C73.515 27.4734 73.7271 27.9731 73.5498 28.4121V28.4121C73.3724 28.8511 72.8727 29.0632 72.4337 28.8858L42.6149 16.8382Z" fill="black"/>
<path d="M58.4076 15.5205C58.067 15.1916 58.0575 14.6488 58.3865 14.3082V14.3082C58.7154 13.9676 59.2581 13.9582 59.5987 14.2871L73.3941 27.6091C73.7347 27.9381 73.7442 28.4808 73.4153 28.8214V28.8214C73.0864 29.162 72.5436 29.1715 72.203 28.8426L58.4076 15.5205Z" fill="black"/>
<path d="M27.6167 2.829C27.2761 2.50008 27.2666 1.95733 27.5956 1.61672V1.61672C27.9245 1.27612 28.4672 1.26664 28.8078 1.59556L42.6032 14.9176C42.9439 15.2465 42.9533 15.7893 42.6244 16.1299V16.1299C42.2955 16.4705 41.7527 16.48 41.4121 16.1511L27.6167 2.829Z" fill="black"/>
<path d="M1.61672 30.829C1.27611 30.5001 1.26664 29.9573 1.59556 29.6167V29.6167C1.92448 29.2761 2.46724 29.2666 2.80784 29.5956L16.6032 42.9176C16.9439 43.2465 16.9533 43.7893 16.6244 44.1299V44.1299C16.2955 44.4705 15.7527 44.48 15.4121 44.1511L1.61672 30.829Z" fill="black"/>
<path d="M15.5998 60.8126C15.2685 60.4928 15.2666 59.9573 15.5956 59.6167V59.6167C15.9245 59.2761 16.4596 59.2593 16.7909 59.5792L30.2069 72.5349C30.5381 72.8548 30.54 73.3902 30.2111 73.7308V73.7308C29.8822 74.0714 29.347 74.0882 29.0158 73.7683L15.5998 60.8126Z" fill="black"/>
<path d="M50.6167 50.829C50.2761 50.5001 50.2666 49.9573 50.5956 49.6167V49.6167C50.9245 49.2761 51.4672 49.2666 51.8078 49.5956L65.6032 62.9176C65.9439 63.2465 65.9533 63.7893 65.6244 64.1299V64.1299C65.2955 64.4705 64.7527 64.48 64.4121 64.1511L50.6167 50.829Z" fill="black"/>
<path d="M42.1682 16.2849C42.0672 16.0685 42.107 15.8362 42.2571 15.7661V15.7661C42.4072 15.6961 42.6108 15.8147 42.7119 16.0311L65.1348 64.0605C65.2359 64.2769 65.196 64.5091 65.0459 64.5792V64.5792C64.8958 64.6493 64.6922 64.5307 64.5912 64.3143L42.1682 16.2849Z" fill="black"/>
<path d="M27.3745 1.96517C27.1677 1.84576 27.0672 1.63264 27.15 1.48915V1.48915C27.2328 1.34567 27.4677 1.32615 27.6745 1.44555L73.5788 27.9485C73.7857 28.0679 73.8862 28.281 73.8033 28.4245V28.4245C73.7205 28.568 73.4857 28.5875 73.2788 28.4681L27.3745 1.96517Z" fill="black"/>
<path d="M27.203 1.68713C27.2671 1.45706 27.4484 1.30657 27.608 1.351V1.351C27.7676 1.39543 27.8451 1.61796 27.7811 1.84803L16.2139 43.4033C16.1498 43.6334 15.9685 43.7839 15.8089 43.7395V43.7395C15.6493 43.695 15.5718 43.4725 15.6358 43.2424L27.203 1.68713Z" fill="black"/>
<path d="M42.2696 16.2016C42.3192 15.968 42.4908 15.8065 42.6529 15.8409V15.8409C42.815 15.8753 42.9061 16.0926 42.8565 16.3262L30.9971 72.1807C30.9475 72.4143 30.7759 72.5758 30.6138 72.5414V72.5414C30.4517 72.507 30.3605 72.2897 30.4101 72.0561L42.2696 16.2016Z" fill="black"/>
<path d="M72.9589 28.1481C73.1241 27.9757 73.3551 27.9289 73.4747 28.0436V28.0436C73.5943 28.1582 73.5573 28.3909 73.392 28.5633L31.0723 72.713C30.9071 72.8854 30.6762 72.9322 30.5565 72.8176V72.8176C30.4369 72.7029 30.4739 72.4702 30.6392 72.2978L72.9589 28.1481Z" fill="black"/>
<path d="M41.9179 15.6602C42.1454 15.5874 42.3707 15.6562 42.4213 15.814V15.814C42.4718 15.9717 42.3285 16.1587 42.101 16.2316L1.70256 29.1771C1.47514 29.25 1.24978 29.1812 1.19922 29.0234V29.0234C1.14866 28.8656 1.29204 28.6786 1.51946 28.6058L41.9179 15.6602Z" fill="black"/>
<path d="M58.4943 13.9976C58.732 13.9744 58.9377 14.0892 58.9539 14.2541V14.2541C58.97 14.419 58.7904 14.5715 58.5527 14.5948L41.6491 16.2483C41.4114 16.2716 41.2056 16.1567 41.1895 15.9918V15.9918C41.1734 15.8269 41.353 15.6744 41.5906 15.6512L58.4943 13.9976Z" fill="black"/>
<path d="M72.832 28.2772C73.0631 28.217 73.2843 28.2982 73.326 28.4585V28.4585C73.3678 28.6188 73.2143 28.7976 72.9832 28.8578L15.6544 43.7913C15.4233 43.8515 15.2021 43.7703 15.1603 43.61V43.61C15.1185 43.4496 15.272 43.2709 15.5031 43.2107L72.832 28.2772Z" fill="black"/>
<path d="M65.6759 63.1758C65.8969 63.2661 66.0253 63.4637 65.9626 63.6171V63.6171C65.8999 63.7705 65.6699 63.8215 65.4488 63.7311L16.5005 43.719C16.2794 43.6286 16.1511 43.431 16.2138 43.2777V43.2777C16.2765 43.1243 16.5065 43.0733 16.7275 43.1636L65.6759 63.1758Z" fill="black"/>
<path d="M15.5353 43.4322C15.5422 43.1935 15.682 43.0039 15.8476 43.0086V43.0086C16.0132 43.0134 16.1419 43.2108 16.135 43.4495L15.6692 59.6172C15.6624 59.8559 15.5225 60.0456 15.3569 60.0408V60.0408C15.1913 60.036 15.0626 59.8387 15.0695 59.5999L15.5353 43.4322Z" fill="black"/>
<path d="M93.456 38.288C91.072 38.288 89.208 37.624 87.864 36.296C86.52 34.968 85.848 33.072 85.848 30.608V21.2H89.736V30.464C89.736 32.064 90.064 33.216 90.72 33.92C91.376 34.624 92.296 34.976 93.48 34.976C94.664 34.976 95.584 34.624 96.24 33.92C96.896 33.216 97.224 32.064 97.224 30.464V21.2H101.064V30.608C101.064 33.072 100.392 34.968 99.048 36.296C97.704 37.624 95.84 38.288 93.456 38.288ZM104.906 38V21.2H108.122L118.034 33.296H116.474V21.2H120.314V38H117.122L107.186 25.904H108.746V38H104.906ZM124.289 38V21.2H128.177V38H124.289ZM132.164 38V21.2H135.38L142.532 33.056H140.828L147.86 21.2H151.052L151.1 38H147.452L147.428 26.792H148.1L142.484 36.224H140.732L134.996 26.792H135.812V38H132.164ZM158.662 27.968H166.75V30.992H158.662V27.968ZM158.95 34.88H168.094V38H155.086V21.2H167.782V24.32H158.95V34.88ZM174.667 38V24.368H169.291V21.2H183.931V24.368H178.555V38H174.667ZM186.023 38V21.2H193.295C194.799 21.2 196.095 21.448 197.183 21.944C198.271 22.424 199.111 23.12 199.703 24.032C200.295 24.944 200.591 26.032 200.591 27.296C200.591 28.544 200.295 29.624 199.703 30.536C199.111 31.432 198.271 32.12 197.183 32.6C196.095 33.08 194.799 33.32 193.295 33.32H188.183L189.911 31.616V38H186.023ZM196.703 38L192.503 31.904H196.655L200.903 38H196.703ZM189.911 32.048L188.183 30.224H193.079C194.279 30.224 195.175 29.968 195.767 29.456C196.359 28.928 196.655 28.208 196.655 27.296C196.655 26.368 196.359 25.648 195.767 25.136C195.175 24.624 194.279 24.368 193.079 24.368H188.183L189.911 22.52V32.048ZM203.672 38V21.2H207.56V38H203.672ZM209.627 38L216.851 28.04V30.872L209.939 21.2H214.355L219.131 27.944L217.283 27.968L221.987 21.2H226.211L219.347 30.704V27.92L226.619 38H222.131L217.187 30.872H218.963L214.091 38H209.627Z" fill="black"/>
<path d="M85.368 62V53.6H88.992C89.928 53.6 90.652 53.788 91.164 54.164C91.684 54.54 91.944 55.072 91.944 55.76C91.944 56.216 91.836 56.6 91.62 56.912C91.412 57.224 91.124 57.46 90.756 57.62C90.396 57.78 90 57.86 89.568 57.86L89.772 57.572C90.308 57.572 90.768 57.656 91.152 57.824C91.544 57.984 91.848 58.228 92.064 58.556C92.28 58.876 92.388 59.276 92.388 59.756C92.388 60.468 92.124 61.02 91.596 61.412C91.076 61.804 90.288 62 89.232 62H85.368ZM86.256 61.268H89.22C89.956 61.268 90.52 61.144 90.912 60.896C91.304 60.64 91.5 60.236 91.5 59.684C91.5 59.14 91.304 58.744 90.912 58.496C90.52 58.24 89.956 58.112 89.22 58.112H86.16V57.38H88.932C89.604 57.38 90.124 57.252 90.492 56.996C90.868 56.74 91.056 56.36 91.056 55.856C91.056 55.344 90.868 54.964 90.492 54.716C90.124 54.46 89.604 54.332 88.932 54.332H86.256V61.268ZM94.2349 62V53.096H95.0869V62H94.2349ZM100.026 62.06C99.4175 62.06 98.8695 61.924 98.3815 61.652C97.9015 61.372 97.5215 60.992 97.2415 60.512C96.9615 60.024 96.8215 59.468 96.8215 58.844C96.8215 58.212 96.9615 57.656 97.2415 57.176C97.5215 56.696 97.9015 56.32 98.3815 56.048C98.8615 55.776 99.4095 55.64 100.026 55.64C100.65 55.64 101.202 55.776 101.682 56.048C102.17 56.32 102.55 56.696 102.822 57.176C103.102 57.656 103.242 58.212 103.242 58.844C103.242 59.468 103.102 60.024 102.822 60.512C102.55 60.992 102.17 61.372 101.682 61.652C101.194 61.924 100.642 62.06 100.026 62.06ZM100.026 61.304C100.482 61.304 100.886 61.204 101.238 61.004C101.59 60.796 101.866 60.508 102.066 60.14C102.274 59.764 102.378 59.332 102.378 58.844C102.378 58.348 102.274 57.916 102.066 57.548C101.866 57.18 101.59 56.896 101.238 56.696C100.886 56.488 100.486 56.384 100.038 56.384C99.5895 56.384 99.1895 56.488 98.8375 56.696C98.4855 56.896 98.2055 57.18 97.9975 57.548C97.7895 57.916 97.6855 58.348 97.6855 58.844C97.6855 59.332 97.7895 59.764 97.9975 60.14C98.2055 60.508 98.4855 60.796 98.8375 61.004C99.1895 61.204 99.5855 61.304 100.026 61.304ZM107.597 62.06C106.973 62.06 106.413 61.924 105.917 61.652C105.429 61.372 105.045 60.992 104.765 60.512C104.485 60.024 104.345 59.468 104.345 58.844C104.345 58.212 104.485 57.656 104.765 57.176C105.045 56.696 105.429 56.32 105.917 56.048C106.413 55.776 106.973 55.64 107.597 55.64C108.133 55.64 108.617 55.744 109.049 55.952C109.481 56.16 109.821 56.472 110.069 56.888L109.433 57.32C109.217 57 108.949 56.764 108.629 56.612C108.309 56.46 107.961 56.384 107.585 56.384C107.137 56.384 106.733 56.488 106.373 56.696C106.013 56.896 105.729 57.18 105.521 57.548C105.313 57.916 105.209 58.348 105.209 58.844C105.209 59.34 105.313 59.772 105.521 60.14C105.729 60.508 106.013 60.796 106.373 61.004C106.733 61.204 107.137 61.304 107.585 61.304C107.961 61.304 108.309 61.228 108.629 61.076C108.949 60.924 109.217 60.692 109.433 60.38L110.069 60.812C109.821 61.22 109.481 61.532 109.049 61.748C108.617 61.956 108.133 62.06 107.597 62.06ZM112.321 60.368L112.345 59.276L116.269 55.7H117.313L114.541 58.352L114.061 58.76L112.321 60.368ZM111.649 62V53.096H112.501V62H111.649ZM116.533 62L113.905 58.724L114.457 58.064L117.577 62H116.533ZM121.226 62.06C120.602 62.06 120.042 61.924 119.546 61.652C119.058 61.372 118.674 60.992 118.394 60.512C118.114 60.024 117.974 59.468 117.974 58.844C117.974 58.212 118.114 57.656 118.394 57.176C118.674 56.696 119.058 56.32 119.546 56.048C120.042 55.776 120.602 55.64 121.226 55.64C121.762 55.64 122.246 55.744 122.678 55.952C123.11 56.16 123.45 56.472 123.698 56.888L123.062 57.32C122.846 57 122.578 56.764 122.258 56.612C121.938 56.46 121.59 56.384 121.214 56.384C120.766 56.384 120.362 56.488 120.002 56.696C119.642 56.896 119.358 57.18 119.15 57.548C118.942 57.916 118.838 58.348 118.838 58.844C118.838 59.34 118.942 59.772 119.15 60.14C119.358 60.508 119.642 60.796 120.002 61.004C120.362 61.204 120.766 61.304 121.214 61.304C121.59 61.304 121.938 61.228 122.258 61.076C122.578 60.924 122.846 60.692 123.062 60.38L123.698 60.812C123.45 61.22 123.11 61.532 122.678 61.748C122.246 61.956 121.762 62.06 121.226 62.06ZM128.494 55.64C129.006 55.64 129.454 55.74 129.838 55.94C130.23 56.132 130.534 56.428 130.75 56.828C130.974 57.228 131.086 57.732 131.086 58.34V62H130.234V58.424C130.234 57.76 130.066 57.26 129.73 56.924C129.402 56.58 128.938 56.408 128.338 56.408C127.89 56.408 127.498 56.5 127.162 56.684C126.834 56.86 126.578 57.12 126.394 57.464C126.218 57.8 126.13 58.208 126.13 58.688V62H125.278V53.096H126.13V57.428L125.962 57.104C126.162 56.648 126.482 56.292 126.922 56.036C127.362 55.772 127.886 55.64 128.494 55.64ZM137.335 62V60.608L137.299 60.38V58.052C137.299 57.516 137.147 57.104 136.843 56.816C136.547 56.528 136.103 56.384 135.511 56.384C135.103 56.384 134.715 56.452 134.347 56.588C133.979 56.724 133.667 56.904 133.411 57.128L133.027 56.492C133.347 56.22 133.731 56.012 134.179 55.868C134.627 55.716 135.099 55.64 135.595 55.64C136.411 55.64 137.039 55.844 137.479 56.252C137.927 56.652 138.151 57.264 138.151 58.088V62H137.335ZM135.163 62.06C134.691 62.06 134.279 61.984 133.927 61.832C133.583 61.672 133.319 61.456 133.135 61.184C132.951 60.904 132.859 60.584 132.859 60.224C132.859 59.896 132.935 59.6 133.087 59.336C133.247 59.064 133.503 58.848 133.855 58.688C134.215 58.52 134.695 58.436 135.295 58.436H137.467V59.072H135.319C134.711 59.072 134.287 59.18 134.047 59.396C133.815 59.612 133.699 59.88 133.699 60.2C133.699 60.56 133.839 60.848 134.119 61.064C134.399 61.28 134.791 61.388 135.295 61.388C135.775 61.388 136.187 61.28 136.531 61.064C136.883 60.84 137.139 60.52 137.299 60.104L137.491 60.692C137.331 61.108 137.051 61.44 136.651 61.688C136.259 61.936 135.763 62.06 135.163 62.06ZM140.465 62V55.7H141.317V62H140.465ZM140.897 54.308C140.721 54.308 140.573 54.248 140.453 54.128C140.333 54.008 140.273 53.864 140.273 53.696C140.273 53.528 140.333 53.388 140.453 53.276C140.573 53.156 140.721 53.096 140.897 53.096C141.073 53.096 141.221 53.152 141.341 53.264C141.461 53.376 141.521 53.516 141.521 53.684C141.521 53.86 141.461 54.008 141.341 54.128C141.229 54.248 141.081 54.308 140.897 54.308ZM146.904 55.64C147.416 55.64 147.864 55.74 148.248 55.94C148.64 56.132 148.944 56.428 149.16 56.828C149.384 57.228 149.496 57.732 149.496 58.34V62H148.644V58.424C148.644 57.76 148.476 57.26 148.14 56.924C147.812 56.58 147.348 56.408 146.748 56.408C146.3 56.408 145.908 56.5 145.572 56.684C145.244 56.86 144.988 57.12 144.804 57.464C144.628 57.8 144.54 58.208 144.54 58.688V62H143.688V55.7H144.504V57.428L144.372 57.104C144.572 56.648 144.892 56.292 145.332 56.036C145.772 55.772 146.296 55.64 146.904 55.64ZM158.886 62V60.608L158.85 60.38V58.052C158.85 57.516 158.698 57.104 158.394 56.816C158.098 56.528 157.654 56.384 157.062 56.384C156.654 56.384 156.266 56.452 155.898 56.588C155.53 56.724 155.218 56.904 154.962 57.128L154.578 56.492C154.898 56.22 155.282 56.012 155.73 55.868C156.178 55.716 156.65 55.64 157.146 55.64C157.962 55.64 158.59 55.844 159.03 56.252C159.478 56.652 159.702 57.264 159.702 58.088V62H158.886ZM156.714 62.06C156.242 62.06 155.83 61.984 155.478 61.832C155.134 61.672 154.87 61.456 154.686 61.184C154.502 60.904 154.41 60.584 154.41 60.224C154.41 59.896 154.486 59.6 154.638 59.336C154.798 59.064 155.054 58.848 155.406 58.688C155.766 58.52 156.246 58.436 156.846 58.436H159.018V59.072H156.87C156.262 59.072 155.838 59.18 155.598 59.396C155.366 59.612 155.25 59.88 155.25 60.2C155.25 60.56 155.39 60.848 155.67 61.064C155.95 61.28 156.342 61.388 156.846 61.388C157.326 61.388 157.738 61.28 158.082 61.064C158.434 60.84 158.69 60.52 158.85 60.104L159.042 60.692C158.882 61.108 158.602 61.44 158.202 61.688C157.81 61.936 157.314 62.06 156.714 62.06ZM165.232 55.64C165.744 55.64 166.192 55.74 166.576 55.94C166.968 56.132 167.272 56.428 167.488 56.828C167.712 57.228 167.824 57.732 167.824 58.34V62H166.972V58.424C166.972 57.76 166.804 57.26 166.468 56.924C166.14 56.58 165.676 56.408 165.076 56.408C164.628 56.408 164.236 56.5 163.9 56.684C163.572 56.86 163.316 57.12 163.132 57.464C162.956 57.8 162.868 58.208 162.868 58.688V62H162.016V55.7H162.832V57.428L162.7 57.104C162.9 56.648 163.22 56.292 163.66 56.036C164.1 55.772 164.624 55.64 165.232 55.64ZM174.074 62V60.608L174.038 60.38V58.052C174.038 57.516 173.886 57.104 173.582 56.816C173.286 56.528 172.842 56.384 172.25 56.384C171.842 56.384 171.454 56.452 171.086 56.588C170.718 56.724 170.406 56.904 170.15 57.128L169.766 56.492C170.086 56.22 170.47 56.012 170.918 55.868C171.366 55.716 171.838 55.64 172.334 55.64C173.15 55.64 173.778 55.844 174.218 56.252C174.666 56.652 174.89 57.264 174.89 58.088V62H174.074ZM171.902 62.06C171.43 62.06 171.018 61.984 170.666 61.832C170.322 61.672 170.058 61.456 169.874 61.184C169.69 60.904 169.598 60.584 169.598 60.224C169.598 59.896 169.674 59.6 169.826 59.336C169.986 59.064 170.242 58.848 170.594 58.688C170.954 58.52 171.434 58.436 172.034 58.436H174.206V59.072H172.058C171.45 59.072 171.026 59.18 170.786 59.396C170.554 59.612 170.438 59.88 170.438 60.2C170.438 60.56 170.578 60.848 170.858 61.064C171.138 61.28 171.53 61.388 172.034 61.388C172.514 61.388 172.926 61.28 173.27 61.064C173.622 60.84 173.878 60.52 174.038 60.104L174.23 60.692C174.07 61.108 173.79 61.44 173.39 61.688C172.998 61.936 172.502 62.06 171.902 62.06ZM177.204 62V53.096H178.056V62H177.204ZM180.474 64.388C180.178 64.388 179.894 64.34 179.622 64.244C179.358 64.148 179.13 64.004 178.938 63.812L179.334 63.176C179.494 63.328 179.666 63.444 179.85 63.524C180.042 63.612 180.254 63.656 180.486 63.656C180.766 63.656 181.006 63.576 181.206 63.416C181.414 63.264 181.61 62.992 181.794 62.6L182.202 61.676L182.298 61.544L184.89 55.7H185.73L182.574 62.756C182.398 63.164 182.202 63.488 181.986 63.728C181.778 63.968 181.55 64.136 181.302 64.232C181.054 64.336 180.778 64.388 180.474 64.388ZM182.154 62.18L179.25 55.7H180.138L182.706 61.484L182.154 62.18ZM186.129 62V61.436L190.329 56.12L190.509 56.408H186.201V55.7H191.181V56.252L186.993 61.58L186.777 61.292H191.265V62H186.129ZM195.512 62.06C194.856 62.06 194.28 61.924 193.784 61.652C193.288 61.372 192.9 60.992 192.62 60.512C192.34 60.024 192.2 59.468 192.2 58.844C192.2 58.22 192.332 57.668 192.596 57.188C192.868 56.708 193.236 56.332 193.7 56.06C194.172 55.78 194.7 55.64 195.284 55.64C195.876 55.64 196.4 55.776 196.856 56.048C197.32 56.312 197.684 56.688 197.948 57.176C198.212 57.656 198.344 58.212 198.344 58.844C198.344 58.884 198.34 58.928 198.332 58.976C198.332 59.016 198.332 59.06 198.332 59.108H192.848V58.472H197.876L197.54 58.724C197.54 58.268 197.44 57.864 197.24 57.512C197.048 57.152 196.784 56.872 196.448 56.672C196.112 56.472 195.724 56.372 195.284 56.372C194.852 56.372 194.464 56.472 194.12 56.672C193.776 56.872 193.508 57.152 193.316 57.512C193.124 57.872 193.028 58.284 193.028 58.748V58.88C193.028 59.36 193.132 59.784 193.34 60.152C193.556 60.512 193.852 60.796 194.228 61.004C194.612 61.204 195.048 61.304 195.536 61.304C195.92 61.304 196.276 61.236 196.604 61.1C196.94 60.964 197.228 60.756 197.468 60.476L197.948 61.028C197.668 61.364 197.316 61.62 196.892 61.796C196.476 61.972 196.016 62.06 195.512 62.06ZM200.079 62V55.7H200.895V57.416L200.811 57.116C200.987 56.636 201.283 56.272 201.699 56.024C202.115 55.768 202.631 55.64 203.247 55.64V56.468C203.215 56.468 203.183 56.468 203.151 56.468C203.119 56.46 203.087 56.456 203.055 56.456C202.391 56.456 201.871 56.66 201.495 57.068C201.119 57.468 200.931 58.04 200.931 58.784V62H200.079Z" fill="black"/>
</svg>
